<svg width="65" height="14" viewBox="0 0 65 14" fill="none" xmlns="http://www.w3.org/2000/svg">
<path d="M0.0486215 0.300323H2.83034V6.09284H2.87242L7.58498 0.300323H10.5163L5.27078 6.30323L11.068 13.6199H7.66913L2.86774 7.1728H2.82567V13.6199H0.0439453V0.300323H0.0486215Z" fill="#09357A"/>
<path d="M27.1742 4.49394C27.1509 4.5968 25.6595 11.2449 25.6595 11.2449C25.6595 11.2449 23.4014 4.58277 23.3687 4.49394C23.2798 4.49394 22.2092 4.49394 22.1204 4.49394C22.0923 4.58745 20.0353 11.3618 20.0353 11.3618C20.0353 11.3618 18.3382 4.59212 18.3148 4.49394C18.2166 4.49394 16.2437 4.49394 16.0801 4.49394C16.1268 4.66225 18.6047 13.5217 18.6327 13.6199C18.7309 13.6199 20.643 13.6199 20.7365 13.6199C20.7693 13.5263 22.6674 7.78993 22.6674 7.78993C22.6674 7.78993 24.7806 13.5357 24.8133 13.6199C24.9021 13.6199 26.8376 13.6199 26.9358 13.6199C26.9592 13.517 29.1331 4.65757 29.1705 4.49394C29.0162 4.49394 27.2724 4.49394 27.1742 4.49394Z" fill="#09357A"/>
<path d="M36.3236 12.1893C36.3236 12.1893 36.3236 13.4983 36.3236 13.6152C36.4499 13.6152 38.6519 13.6152 38.7781 13.6152C38.7781 13.4843 38.7781 7.41597 38.7781 7.41597C38.7781 5.78434 38.3199 4.27426 34.9959 4.27426C32.3544 4.27426 30.9472 5.25604 30.9145 7.11675C31.0454 7.11675 33.4204 7.11675 33.5419 7.11675C33.5419 7.07935 33.5466 7.03728 33.5466 7.03728C33.584 6.39211 33.6588 5.05501 34.9772 5.05501C35.9262 5.05501 36.3283 5.61603 36.3283 6.93443V8.55671H36.2628C34.8509 8.61281 30.5498 8.78112 30.5498 11.5815C30.5498 12.8625 31.7466 13.8303 33.3268 13.8303C35.3746 13.835 36.3236 12.1893 36.3236 12.1893ZM34.332 12.6288C33.5653 12.6288 33.0837 12.1052 33.0837 11.259C33.0837 10.1743 34.1497 9.52914 36.2488 9.34214L36.3236 9.33746V10.0902C36.3236 11.3478 35.6411 12.6288 34.332 12.6288Z" fill="#09357A"/>
<path d="M45.3977 13.8349C45.9727 13.8349 46.5384 13.7835 47.1369 13.7227H47.1462C47.1462 13.6152 47.1462 12.6568 47.1462 12.5118C46.7815 12.61 46.3795 12.6287 46.0569 12.6287C45.0143 12.6287 44.659 12.2267 44.659 11.0438V5.48974C44.659 5.48974 47.3987 5.48974 47.5296 5.48974C47.5296 5.37754 47.5296 4.61081 47.5296 4.49861C47.3987 4.49861 44.659 4.49861 44.659 4.49861C44.659 4.49861 44.659 1.16055 44.659 0.945496C44.4767 1.04367 42.27 2.25453 42.2046 2.29193C42.2046 2.37141 42.2046 4.49861 42.2046 4.49861C42.2046 4.49861 40.428 4.49861 40.3018 4.49861C40.3018 4.61081 40.3018 5.37754 40.3018 5.48974C40.428 5.48974 42.2046 5.48974 42.2046 5.48974V11.3384C42.2139 13.4141 43.4294 13.8349 45.3977 13.8349Z" fill="#09357A"/>
<path d="M53.3178 13.835C54.7764 13.835 55.4029 13.6527 56.5436 13.2132C56.5436 13.1384 56.5436 12.5259 56.5436 12.381C56.0013 12.5633 55.314 12.7644 54.6221 12.7644C51.6253 12.7644 50.6576 9.58526 50.6576 8.04713V7.98169C50.6576 7.98169 56.6044 7.98169 56.7353 7.98169C56.7353 7.89286 56.7353 7.70118 56.7353 7.70118C56.7353 5.49918 55.2907 4.28831 52.6726 4.28831C49.7085 4.28831 48.2031 5.75163 48.2031 8.63621C48.2078 13.3254 51.7796 13.835 53.3178 13.835ZM50.6623 7.06068C50.7511 6.45759 51.1204 5.05503 52.5931 5.05503C54.3229 5.05503 54.3743 6.86432 54.3743 7.07003V7.14017H50.6529L50.6623 7.06068Z" fill="#09357A"/>
<path d="M64.6785 6.5791C64.6785 6.45755 64.6785 4.43319 64.6785 4.29294C62.8879 4.43319 62.0043 5.57861 61.2796 6.81286L61.1908 6.95779C61.1908 6.95779 61.1908 4.62488 61.1908 4.49865C61.0646 4.49865 58.8626 4.49865 58.7363 4.49865C58.7363 4.63423 58.7363 13.4937 58.7363 13.6246C58.8626 13.6246 61.0646 13.6246 61.1908 13.6246C61.1908 13.4937 61.1908 9.54783 61.1908 9.54783C61.1908 7.42531 62.1726 6.59312 64.6785 6.5791Z" fill="#09357A"/>
</svg>
